<svg width="20" height="21" viewBox="0 0 20 21" fill="none" xmlns="http://www.w3.org/2000/svg">
<path d="M19.1301 9.35798L1.61406 0.107979C1.32406 -0.0440207 0.97406 0.00597923 0.74106 0.233979C0.51106 0.459979 0.44806 0.810979 0.59106 1.10198L4.95306 10.022L0.59106 18.942C0.44806 19.234 0.51106 19.585 0.74106 19.81C0.88606 19.95 1.07406 20.022 1.26406 20.022C1.38406 20.022 1.50406 19.994 1.61406 19.935L19.1311 10.685C19.3761 10.555 19.5311 10.299 19.5311 10.021C19.5311 9.74298 19.3761 9.48898 19.1311 9.35898L19.1301 9.35798ZM2.94806 2.50998L15.7521 9.27198H6.25506L2.94806 2.51198V2.50998ZM6.25506 10.77H15.7531L2.94806 17.535L6.25506 10.772V10.77Z" fill="#21978B"/>
</svg>
